<?xml version="1.0" encoding="utf-8"?>
<!-- Generator: Adobe Illustrator 22.0.1, SVG Export Plug-In . SVG Version: 6.00 Build 0)  -->
<svg version="1.1" id="Layer_1" xmlns="http://www.w3.org/2000/svg" xmlns:xlink="http://www.w3.org/1999/xlink" x="0px" y="0px"
viewBox="0 0 279.7 282" style="enable-background:new 0 0 279.7 282;" xml:space="preserve">
<style type="text/css">
.st0{fill:#E50614;}
.st1{fill:#666666;}
.st2{fill:#F53948;}
.st3{fill:#B8B8B8;}
.st4{opacity:0.4;}
.first-circle {
	animation: fCircle 60s linear infinite;
	transform-origin: 147px 142px;
}
.second-circle {
	animation: sCircle 30s linear infinite;
	transform-origin: 143px 136px;
}
.third-circle {
	animation: sCircle 50s linear infinite;
	transform-origin: 135px 140px;
}

.h1, .h2, .h3, .h4  {
	animation: scale 0.5s infinite alternate;
}

.h1 { transform-origin: 142px 24px; }

.h2 { transform-origin: 260px 160px; }

.h3 { transform-origin: 260px 190px; }
.h4 { transform-origin: 35px 161px; }

/*@keyframes fCircle {
	from { transform: rotate(0); }
	to { transform: rotate(360deg); }
}
@keyframes sCircle {
	from { transform: rotate(0); }
	to { transform: rotate(-360deg); }
}
@keyframes scale {
	from { transform: scale(1); }
	to { transform: scale(1.3); }
}*/

.text {
	animation: hideText 1s 2s;
	animation-fill-mode: forwards;

}

@keyframes hideText {
	from { opacity: 1; }
	to { opacity: 0; }
} 


</style>



<g class="text">
	<path class="st0" d="M72.3,116.2l0.2,0c0.3,0.2,0.4,1.2,0.2,3.1l-0.5,3.7c-0.7,8.3-1.3,14.4-1.8,18.2l-0.3,2.6
	c-0.5,3.7-1.4,7.1-2.7,10.2c-1.5,2.8-3.1,4.1-4.9,3.8c-2.4-0.3-4.2-3.1-5.5-8.3c-0.7-4.3-0.9-7.1-0.7-8.5
	c-0.1-2.2,0.2-6.9,0.9-14.1c0.1-4.3,0-7.6-0.3-9.7c-0.1-0.2-0.1-0.5-0.1-0.9c0.1-0.7,0.5-1.2,1.3-1.5c0.1-0.1,0.4-0.1,0.8-0.1
	c1.2,0.5,1.7,1.1,1.6,2c0.4,2.6,0.6,5.3,0.6,8.1c-0.1,2.7-0.5,8.2-1.2,16.6c-0.1,3.7-0.1,6.5,0.2,8.3c0.2,1.7,0.5,3.1,0.9,4.2
	c0.6,1.4,1.3,2.2,1.9,2.3l0.2,0c1.9,0.3,3.5-2.6,4.9-8.6l0.9-5c0.6-4.1,1.3-11.5,2.2-22l0.2-1.5C71.5,117.6,71.8,116.6,72.3,116.2z
	"/>
	<path class="st0" d="M81.9,135.3h2.3c0.4,0,0.7,0.2,0.8,0.6c0.5-0.3,0.9-0.5,1.2-0.5c0.7,0,1.1,0.6,1.2,1.9v0.1
	c-0.3,2.7-0.5,4.2-0.5,4.6v2.3c0,1.9,0.3,3.2,0.8,3.7c0.3,0.2,0.5,0.3,0.7,0.3h0.5c0.8,0,2.2-1.2,4-3.6c1.6-2.1,2.7-3.3,3.1-3.6
	c0.3-0.3,0.5-0.5,0.7-0.5v0.1c-0.3,0.7-1.8,2.7-4.3,6c-1.5,1.7-2.8,2.6-3.9,2.6h-0.6c-0.9,0-2-0.8-3.2-2.4
	c-0.9-1.6-1.3-3.1-1.3-4.3v-1.7l0.2-1.8h-0.1c-0.6,0.5-1.1,1.2-1.5,1.9c-1.2,2.5-2.3,4.2-3.2,5.2c-0.7,0.6-1.2,0.9-1.7,0.9h-0.4
	c-1,0-1.8-0.7-2.5-2.2c-0.1-0.5-0.2-0.9-0.2-1.2c0-2.6,1.5-5,4.5-7.3C79.6,135.6,80.7,135.3,81.9,135.3z M77,141.3v1.3
	c0.2,1.7,0.5,2.6,1,2.6H78c0.5,0,1.4-1.2,2.8-3.5c0.6-1.1,1.6-2.4,3.1-4c0.1-0.3,0.4-0.7,0.7-1.3v-0.1h-2.1c-1,0-2.2,0.4-3.5,1.2
	C77.6,138.6,77,139.8,77,141.3z"/>
	<path class="st0" d="M105.7,109c1.9,0,3.2,1.6,4,4.8c0.1,0.7,0.1,1,0.1,1.1v1.2c0,2.9-1.1,7.2-3.2,13c-1.9,3.5-3.1,5.6-3.6,6.3
	c0,0.1-1.1,1.7-3.4,4.8c0.4,3.8,0.9,6.5,1.6,7.9c0.8,2,1.7,2.9,2.6,2.9h0.3c1.2,0,2.5-1.2,4-3.5c2.1-2.7,3.5-5,4.4-7l0.3-0.3h0.2
	c0,0,0.1,0.1,0.2,0.2c0,0.7-1.1,2.6-3.4,5.9c-1.4,2.5-2.6,4.3-3.5,5.2c-1.2,1.2-2.3,1.8-3.4,1.8h-0.4c-1.6,0-3-1.1-4.4-3.3
	c-1-2.1-1.6-3.6-1.6-4.5c-0.3-1-0.6-3-0.8-6c0-0.7,0-1.9-0.1-3.6c0-4.9,0.6-10,1.7-15.4c1-3.4,2-5.8,2.9-7.1
	C102.4,110.5,104.1,109,105.7,109z M99.4,135.2c0,1,0.1,2.2,0.1,3.6c0,0.1,0.1,0.1,0.1,0.2h0.2c2.6-3.8,4.3-6.6,5.2-8.4
	c0.7-1.1,1.6-3.3,2.5-6.3c1-3.1,1.5-6,1.5-8.6c0-2.8-0.8-4.7-2.4-5.5c-0.2-0.1-0.4-0.1-0.6-0.1c-1.3,0-2.4,1.2-3.3,3.6
	c-0.6,1.2-1.2,3.3-1.9,6.3C99.8,124.8,99.4,129.9,99.4,135.2z"/>
	<path class="st0" d="M118.1,129.8c1.4,0,2.1,0.9,2.4,2.7v0.1c0,1.6-1,3.4-2.9,5.4l-1.8,1.4c1.8,4.9,5.1,5.2,10,1.1l0.1,0.3
	c-2.2,2.6-5.3,3.8-9.2,3.8h-0.5c-1.3,0-2.5-0.7-3.6-2.1c-0.7-2.1-0.9-3.8-0.6-5v-0.1c0-2.5,1.4-4.8,4.3-7
	C116.9,130.1,117.5,129.8,118.1,129.8z M114.9,136.3v0.1c0.1,1.4,0.3,2.1,0.5,2.2c2.1-1.2,3.5-2.9,4.2-4.9c0.1-0.1,0.1-0.5,0.2-1.2
	c0-1.3-0.5-1.9-1.6-1.9c-1.5,0-2.5,1.2-3.1,3.6C114.9,135.2,114.9,135.9,114.9,136.3z"/>
	<path class="st0" d="M127.4,134.4c0.7,0,1.2,0.5,1.4,1.4c0,2,0.1,3.7,0.3,5.2c0.2,1.5,0.5,2.4,0.7,2.7c0.2-0.3,0.4-0.8,0.7-1.6
	c1.2-2.3,2.4-4.1,3.7-5.4c1.5-1.5,2.8-2.2,3.7-2.2c2.8-0.5,4.2,0,4.1,1.3c-0.1,1.3-0.4,2.9-0.8,4.6c-0.4,1.7-0.7,3.8-0.8,6.2
	c-0.2,2.4,0.1,4.1,0.7,5.1h0.8c1.2-0.7,2.4-1.9,3.5-3.4c1.1-1.6,3-4.3,5.7-8h0.1v0.1c0,0.3-0.6,1.4-1.8,3.2
	c-1.2,1.8-2.9,4.2-4.9,7.2c-1,1.4-2,2.2-2.9,2.6c-0.4,0.1-0.6,0.2-0.7,0.2h-0.7c-0.8,0-1.7-0.7-2.5-2c-0.5-1.3-0.7-2.3-0.7-3.3
	v-2.1c0-1.9,0.5-5.2,1.4-9.9c0-0.1,0.1-0.4,0.1-0.8c0-0.2-0.1-0.4-0.3-0.4c-1.4,0-3.2,1.8-5.2,5.3c-0.8,1.2-1.5,2.5-1.9,3.8
	c-0.5,1.8-1.1,2.7-2,2.7c-1.6,0.5-2.7-0.6-3.2-3.3c-0.6-2.6-0.6-5.3-0.2-8.1C125.8,134.8,126.4,134.4,127.4,134.4z"/>
	<path class="st0" d="M160.4,115.3c0.3,0.2,0.5,0.4,0.5,0.6c0,0.6-0.4,1.9-1.3,4l0.2,0.1h4.1c2.5-0.2,4.7-0.4,6.5-0.8l3.3-1.2
	c0,0.1,0.1,0.2,0.1,0.2c-0.5,0.8-1.6,1.4-3.4,1.9c-1.9,0.4-4.2,0.7-7,0.9h-1.7c-0.6,0-1.4,0-2.4-0.1c-2.3,7.4-4.4,17.9-6.4,31.4
	c-0.1,0.7-0.2,2-0.3,3.7v1.6c0.2,2.9,0.5,4.5,1.1,4.7h0.1c0.6,0,1.4-1.2,2.6-3.7c0.5-0.8,1.3-2.4,2.3-4.7c0.8-1.6,1.7-3.2,2.5-5
	c2.1-4,3.6-6.6,4.5-7.8c0.3-0.4,0.5-0.6,0.5-0.6h0.1c0.1,0,0.1,0,0.1,0.1v0.1c-0.4,0.9-1.2,2.6-2.6,5c-1.7,3-3.7,7.1-6.1,12.4
	c-0.6,1-1.3,2.4-2.2,4.1c-0.7,1-1.5,1.4-2.3,1.4c-1,0-1.9-0.8-2.8-2.4c-0.4-0.7-0.6-1.9-0.7-3.5v-2.9c0.1-1.4,0.2-4.2,0.3-8.4
	c0.4-2.5,0.6-4,0.6-4.6c0.7-4.4,1.4-8.2,2.4-11.5c1.2-3.9,2.3-7,3.3-9.4c-0.8-0.1-2.5-0.2-4.9-0.4c-0.4,0-0.7,0.1-0.9,0.1h-0.6
	c-2.7,0-4.2,0.3-4.5,0.8c-0.3,0.3-0.5,0.5-0.7,0.6c-0.3-0.1-0.5-0.2-0.5-0.5c0.8-1.2,2.1-1.8,3.9-1.8h0.9c0,0,0.1,0,0.1-0.1
	c0,0,0.1,0,0.1,0.1c0.2,0,0.4,0,0.6-0.1c1.7,0,4,0.1,7,0.3c1.4-2.3,2.2-3.6,2.5-4C159.6,115.5,160,115.3,160.4,115.3z"/>
	<path class="st0" d="M167.9,137.1h0.2c0.9,0.2,1.4,0.7,1.4,1.3v0.2c-0.2,1.3-0.3,2-0.3,2.1v3.2c0.2,2.2,0.4,3.4,0.8,3.6h0.3
	c0.6,0,1.5-0.7,2.8-2.1c0.8-1,1.8-2.4,2.9-4.1c0.4-0.4,0.7-0.6,0.8-0.6v0.1c-0.4,1.2-1.6,3.2-3.7,6.1c-1.2,1.5-2.4,2.3-3.4,2.3
	c-0.2,0-0.3,0.1-0.3,0.1c-0.6,0-1.2-0.3-2-0.9c-1-1.1-1.6-2.7-1.6-4.6v-0.6c0-1.5,0.3-3.3,1-5.3
	C167.1,137.3,167.5,137.1,167.9,137.1z M168.2,131.7c0.7,0.1,1.1,0.4,1.1,0.7c0,0.5-0.3,0.8-0.9,1c-0.7-0.2-1-0.5-1-1
	C167.6,131.9,167.8,131.7,168.2,131.7z"/>
	<path class="st0" d="M178.4,134.4c0.7,0,1.2,0.5,1.4,1.4c0,2,0.1,3.7,0.3,5.2c0.2,1.5,0.5,2.4,0.7,2.7c0.2-0.3,0.4-0.8,0.7-1.6
	c1.2-2.3,2.4-4.1,3.7-5.4c1.5-1.5,2.8-2.2,3.7-2.2c2.8-0.5,4.2,0,4.1,1.3c-0.1,1.3-0.4,2.9-0.8,4.6c-0.4,1.7-0.7,3.8-0.8,6.2
	c-0.2,2.4,0.1,4.1,0.7,5.1h0.8c1.2-0.7,2.4-1.9,3.5-3.4c1.1-1.6,3-4.3,5.7-8h0.1v0.1c0,0.3-0.6,1.4-1.8,3.2
	c-1.2,1.8-2.9,4.2-4.9,7.2c-1,1.4-2,2.2-2.9,2.6c-0.4,0.1-0.6,0.2-0.7,0.2h-0.7c-0.8,0-1.7-0.7-2.5-2c-0.5-1.3-0.7-2.3-0.7-3.3
	v-2.1c0-1.9,0.5-5.2,1.4-9.9c0-0.1,0.1-0.4,0.1-0.8c0-0.2-0.1-0.4-0.3-0.4c-1.4,0-3.2,1.8-5.2,5.3c-0.8,1.2-1.5,2.5-1.9,3.8
	c-0.5,1.8-1.1,2.7-2,2.7c-1.6,0.5-2.7-0.6-3.2-3.3c-0.6-2.6-0.6-5.3-0.2-8.1C176.7,134.8,177.4,134.4,178.4,134.4z"/>
	<path class="st0" d="M207.3,129.8c1.4,0,2.1,0.9,2.4,2.7v0.1c0,1.6-1,3.4-2.9,5.4l-1.8,1.4c1.8,4.9,5.1,5.2,10,1.1l0.1,0.3
	c-2.2,2.6-5.3,3.8-9.2,3.8h-0.5c-1.3,0-2.5-0.7-3.6-2.1c-0.7-2.1-0.9-3.8-0.6-5v-0.1c0-2.5,1.4-4.8,4.3-7
	C206,130.1,206.7,129.8,207.3,129.8z M204,136.3v0.1c0.1,1.4,0.3,2.1,0.5,2.2c2.1-1.2,3.5-2.9,4.2-4.9c0.1-0.1,0.1-0.5,0.2-1.2
	c0-1.3-0.5-1.9-1.6-1.9c-1.5,0-2.5,1.2-3.1,3.6C204.1,135.2,204,135.9,204,136.3z"/>
	<path class="st0" d="M217.2,121.9c0.3,0.3,0.7,0.7,1.1,1.2c0.7,1.9,0.6,3.6-0.4,5c-1,1.1-1.7,1.6-2.2,1.5c-0.4-0.1-0.4-0.6-0.2-1.4
	c1.1-1.6,1.5-2.9,1.2-3.8c-0.8-1-1.1-1.7-0.9-1.9C216.3,121.9,216.8,121.8,217.2,121.9z"/>
	<path class="st0" d="M221.5,139.7c0.4,2.1,1.3,4.4,2.7,7l2.1,4c1.6-1.4,3.5-3.9,5.9-7.5c1.1-1.6,1.8-2.5,2.1-2.6
	c0.2,0.1,0.2,0.1,0.2,0.2c-1.4,2.3-3.9,6-7.6,10.9v0.2c1.3,3.3,2,5.5,2,6.6c0,0,0.1,0.4,0.2,1.3v1.2c0,1.4-0.5,2.9-1.4,4.6
	c-1.5,1.9-3.2,2.8-5.1,2.7c-1.8-0.1-3.1-1.2-4-3.3c-0.1-0.5-0.2-1-0.3-1.7c0.2-1.8,0.6-3.2,1.2-4.3c0.5-0.9,1.5-2.4,3.1-4.4
	c0.3-0.3,0.5-0.5,0.5-0.7v-0.1c-3.2-5.1-5-9.3-5.3-12.7c0-0.6,0-1.1-0.1-1.4c0-2.7,0.7-4.9,2-6.8c1.1-2,2.2-2.9,3.1-2.9l0.2,0
	c0.9,0,1.5,0.7,1.8,1.9c0.3,1.2-0.1,2.8-1.2,4.8C222.5,138.6,221.8,139.6,221.5,139.7z M219.3,162.5v0.6c0,1.5,0.6,2.5,1.9,3.2
	l0.8,0c0.9,0,1.8-0.7,2.8-2.4c0.6-1.2,0.9-2.4,0.9-3.4v-0.5c0-0.9-0.4-1.9-1.1-3.2c-0.4-0.9-0.7-1.4-1-1.7c-0.3,0.1-1.2,1.2-3,3.1
	C219.7,159.7,219.3,161.1,219.3,162.5z M221.4,138.9c2-2.7,3-4.9,2.8-6.6c-0.4-0.8-0.8-1.2-1.1-1.2l-0.2,0c-0.5,0-1,1.2-1.4,3.7
	c-0.1,1.5-0.2,2.3-0.2,2.5C221.3,137.8,221.3,138.3,221.4,138.9z"/>
</g>
<g class="text">
	<path class="st1" d="M121,102.7v7.7h-1.5v-3.3H116v3.3h-1.5v-7.7h1.5v3.1h3.5v-3.1H121z"/>
	<path class="st1" d="M128.3,110.4l3-7.7h1.2l3,7.7H134l-0.7-1.9h-2.7l-0.7,1.9H128.3z M132,104.3l-1.1,3.1h2.2L132,104.3z"/>
	<path class="st1" d="M142.9,110.4v-7.7h3.3c0.4,0,0.7,0.1,1,0.2c0.3,0.1,0.6,0.3,0.8,0.6c0.2,0.2,0.4,0.5,0.5,0.8
	c0.1,0.3,0.2,0.6,0.2,0.9c0,0.3-0.1,0.6-0.2,0.9c-0.1,0.3-0.3,0.6-0.5,0.8c-0.2,0.2-0.5,0.4-0.8,0.6c-0.3,0.1-0.6,0.2-1,0.2h-1.8
	v2.6H142.9z M144.4,106.5h1.7c0.3,0,0.5-0.1,0.7-0.3c0.2-0.2,0.3-0.5,0.3-0.9c0-0.2,0-0.4-0.1-0.5c-0.1-0.2-0.1-0.3-0.2-0.4
	c-0.1-0.1-0.2-0.2-0.3-0.2c-0.1-0.1-0.3-0.1-0.4-0.1h-1.7V106.5z"/>
	<path class="st1" d="M156.1,110.4v-7.7h3.3c0.4,0,0.7,0.1,1,0.2c0.3,0.1,0.6,0.3,0.8,0.6c0.2,0.2,0.4,0.5,0.5,0.8
	c0.1,0.3,0.2,0.6,0.2,0.9c0,0.3-0.1,0.6-0.2,0.9c-0.1,0.3-0.3,0.6-0.5,0.8c-0.2,0.2-0.5,0.4-0.8,0.6c-0.3,0.1-0.6,0.2-1,0.2h-1.8
	v2.6H156.1z M157.6,106.5h1.7c0.3,0,0.5-0.1,0.7-0.3c0.2-0.2,0.3-0.5,0.3-0.9c0-0.2,0-0.4-0.1-0.5c-0.1-0.2-0.1-0.3-0.2-0.4
	c-0.1-0.1-0.2-0.2-0.3-0.2c-0.1-0.1-0.3-0.1-0.4-0.1h-1.7V106.5z"/>
	<path class="st1" d="M169.9,102.7l1.9,3.7l1.9-3.7h1.6l-2.8,5v2.7h-1.5v-2.7l-2.8-5H169.9z"/>
</g>
<g class="text">
	<path class="st1" d="M120.1,179.6v-10.5h3.8c0.9,0,1.6,0.1,2.3,0.4c0.6,0.3,1.2,0.7,1.6,1.1c0.4,0.5,0.8,1,1,1.7
	c0.2,0.6,0.3,1.3,0.3,2c0,0.8-0.1,1.5-0.4,2.2c-0.2,0.6-0.6,1.2-1,1.7c-0.5,0.5-1,0.8-1.6,1.1c-0.6,0.3-1.4,0.4-2.1,0.4H120.1z
	M127.1,174.3c0-0.5-0.1-1-0.2-1.4c-0.1-0.4-0.3-0.8-0.6-1.1c-0.3-0.3-0.6-0.5-1-0.7c-0.4-0.2-0.8-0.3-1.3-0.3h-1.8v6.9h1.8
	c0.5,0,1-0.1,1.3-0.3c0.4-0.2,0.7-0.4,1-0.7c0.3-0.3,0.5-0.7,0.6-1.1C127,175.3,127.1,174.8,127.1,174.3z"/>
	<path class="st1" d="M138.2,179.6l4.2-10.5h1.7l4.1,10.5H146l-1-2.6h-3.7l-1,2.6H138.2z M143.2,171.3l-1.5,4.3h3L143.2,171.3z"/>
	<path class="st1" d="M158.2,169.1l2.6,5.1l2.6-5.1h2.2l-3.8,6.9v3.7h-2v-3.7l-3.8-6.8H158.2z"/>
</g>

<g>
	<path class="st3" d="M150.1,262.5c-62.9,0-114-51.2-114-114s51.2-114,114-114s114,51.2,114,114S213,262.5,150.1,262.5z M150.1,35.5
	c-62.3,0-113,50.7-113,113c0,62.3,50.7,113,113,113s113-50.7,113-113C263.1,86.2,212.4,35.5,150.1,35.5z"/>
</g>

<g class="second-circle">
	<path class="st3" d="M141.6,243c-62.9,0-114-51.2-114-114s51.2-114,114-114s114,51.2,114,114S204.5,243,141.6,243z M141.6,15.9
	c-62.3,0-113,50.7-113,113s50.7,113,113,113c62.3,0,113-50.7,113-113S203.9,15.9,141.6,15.9z"/>
	<polygon class="st1" points="170,15.1 168.5,14.2 166.9,14.9 167.3,13.3 166.2,12 167.9,11.9 168.8,10.4 169.4,12 171.1,12.3 
	169.8,13.4 	"/>
	<polygon class="st1" points="14.3,123 15.3,126.3 18.7,127.4 15.8,129.4 15.9,132.9 13.1,130.8 9.7,131.9 10.9,128.6 8.8,125.8 
	12.3,125.8 	"/>
</g>

<g class="third-circle">
	<path class="st2" d="M133.1,257.4c-62.9,0-114-51.2-114-114s51.2-114,114-114s114,51.2,114,114S196,257.4,133.1,257.4z M133.1,30.4
	c-62.3,0-113,50.7-113,113s50.7,113,113,113c62.3,0,113-50.7,113-113S195.4,30.4,133.1,30.4z"/>
		<path class="st0" d="M24.2,97.2c0.9,1.8,3.1,2.7,5.3,1.6c1.8-0.9,2.2-3.1,2.2-3.1s2,1.2,3.8,0.5c2.3-0.9,3.1-3.2,2.4-5
	c-0.7-1.8-2.7-2.9-4.2-3.5c-2-0.9-4.8-1.4-6.3-1.6c-0.9,1.2-2.3,3.7-3,5.8C23.8,93.3,23.3,95.5,24.2,97.2z"/>
		<path class="st0" d="M22.8,189c-0.9,1.2-0.7,3.1,0.8,4.2c1.2,0.9,2.9,0.4,2.9,0.4s-0.1,1.7,1,2.7c1.4,1.2,3.2,1,4.2-0.1
	c1-1.1,1-2.8,0.9-4.1c-0.1-1.7-0.7-3.8-1.1-4.9c-1.2-0.2-3.3-0.3-5,0C25.3,187.4,23.7,187.8,22.8,189z"/>
		<path class="st0" d="M230.3,187.6c-1.2-1.4-3.5-1.8-5.2-0.2c-1.4,1.2-1.3,3.4-1.3,3.4s-2.1-0.7-3.6,0.4c-1.9,1.3-2.1,3.6-1.1,5.1
	c1,1.5,3.1,2,4.6,2.3c2.1,0.3,4.7,0.3,6.2,0.1c0.5-1.3,1.3-3.9,1.5-6C231.5,191.1,231.5,189,230.3,187.6z"/>
	
	
</g>
<g class="first-circle">
	<path class="st2" d="M149.2,252.3c-62.9,0-114-51.2-114-114s51.2-114,114-114s114,51.2,114,114S212.1,252.3,149.2,252.3z
	M149.2,25.3c-62.3,0-113,50.7-113,113c0,62.3,50.7,113,113,113c62.3,0,113-50.7,113-113C262.3,76,211.6,25.3,149.2,25.3z"/>
	<path class="st0 h1" d="M150,19.8c-0.4-2.2-2.4-3.9-5.1-3.4c-2.1,0.4-3.3,2.6-3.3,2.6s-1.7-1.9-3.8-1.7c-2.7,0.2-4.3,2.3-4.2,4.5
	c0.1,2.2,1.9,3.9,3.3,5.1c1.9,1.6,4.6,3.1,6.2,3.8c1.4-1,3.6-3.1,5.1-5.1C149.1,24.1,150.4,22,150,19.8z"/>
	<path class="st0 h2" d="M264.6,153.7c-1.3-1.2-3.5-1.4-5.1,0.3c-1.2,1.3-0.9,3.4-0.9,3.4s-2-0.4-3.4,0.7c-1.7,1.5-1.7,3.7-0.5,5.1
	c1.1,1.4,3.2,1.7,4.7,1.8c2,0.1,4.6-0.2,5.9-0.5c0.4-1.3,0.9-3.9,0.8-5.9C266.1,157,265.9,154.9,264.6,153.7z"/>
	<path class="st0 h3" d="M250.4,186.3c-0.9,1.1-0.9,2.9,0.5,4.1c1.1,0.9,2.8,0.5,2.8,0.5s-0.2,1.7,0.8,2.7c1.3,1.3,3.1,1.1,4.1,0.1
	c1-1,1.1-2.7,1.1-3.9c0-1.6-0.5-3.7-0.8-4.8c-1.1-0.2-3.2-0.4-4.8-0.3C252.9,184.9,251.3,185.2,250.4,186.3z"/>
	<path class="st0 h4" d="M31.5,157.9c-0.5,0.9-0.2,2.2,1,2.8c0.9,0.5,2-0.1,2-0.1s0.1,1.2,1,1.8c1.1,0.7,2.3,0.3,2.9-0.5
	c0.6-0.9,0.4-2,0.2-2.9c-0.3-1.1-0.9-2.5-1.3-3.2c-0.8,0-2.3,0.2-3.4,0.5C33,156.5,31.9,157,31.5,157.9z"/>
</g>

<g>	
	<path class="st0" d="M188.9,248.1c1.7-0.4,3-2.1,2.6-4.2c-0.3-1.7-2.2-2.6-2.2-2.6s1.5-1.4,1.3-3.1c-0.2-2.2-2-3.4-3.7-3.2
	c-1.7,0.2-3.1,1.6-4,2.7c-1.2,1.5-2.4,3.8-2.9,5c0.9,1.1,2.6,2.8,4.2,4C185.5,247.5,187.2,248.5,188.9,248.1z"/>
	<path class="st0" d="M94.8,16.1c-0.5,0.8-0.3,1.9,0.7,2.5c0.8,0.5,1.8,0.1,1.8,0.1s0,1.1,0.7,1.7c0.9,0.7,2,0.5,2.6-0.3
	c0.6-0.7,0.5-1.8,0.4-2.6c-0.2-1-0.6-2.3-0.9-3c-0.7-0.1-2.1,0-3.1,0.2C96.3,15,95.3,15.3,94.8,16.1z"/>
	<path class="st0" d="M131.6,266.5c1-1.3,1-3.3-0.6-4.6c-1.3-1-3.1-0.6-3.1-0.6s0.3-1.9-0.9-3.1c-1.4-1.5-3.5-1.3-4.6-0.2
	c-1.2,1.1-1.3,3-1.3,4.4c0,1.9,0.5,4.2,0.9,5.4c1.3,0.3,3.6,0.5,5.4,0.4C128.8,268.1,130.6,267.8,131.6,266.5z"/>
	<path class="st0" d="M42.5,129.1c-0.1-0.7-0.7-1.2-1.5-1.2c-0.7,0.1-1.1,0.7-1.1,0.7s-0.5-0.6-1.1-0.6c-0.8,0-1.4,0.6-1.4,1.3
	c0,0.7,0.5,1.2,0.9,1.6c0.5,0.5,1.3,1.1,1.8,1.3c0.4-0.3,1.2-0.9,1.7-1.5C42.1,130.3,42.6,129.7,42.5,129.1z"/>
	<path class="st0" d="M75.1,236.6c-0.7,1.1-0.4,2.6,0.9,3.4c1,0.7,2.4,0.2,2.4,0.2s0,1.4,1,2.2c1.2,1,2.7,0.7,3.5-0.3
	c0.8-1,0.7-2.4,0.6-3.4c-0.2-1.4-0.8-3.1-1.2-4c-1-0.1-2.7-0.1-4.1,0.2C77.1,235.2,75.8,235.6,75.1,236.6z"/>


	<path class="st0" d="M245.2,58.9c-0.4-0.6-1.3-0.9-2.1-0.4c-0.6,0.4-0.7,1.3-0.7,1.3s-0.8-0.4-1.5,0c-0.8,0.4-1,1.3-0.7,2
	c0.3,0.7,1.1,1,1.7,1.2c0.8,0.2,1.9,0.4,2.5,0.3c0.3-0.5,0.7-1.5,0.9-2.3C245.5,60.4,245.6,59.6,245.2,58.9z"/>
	<path class="st0" d="M55.7,89.2c-0.1,0.8,0.5,1.7,1.5,1.8c0.8,0.1,1.5-0.6,1.5-0.6s0.4,0.9,1.2,1c1,0.2,1.8-0.4,2-1.2
	c0.2-0.8-0.3-1.6-0.6-2.2c-0.5-0.8-1.3-1.6-1.8-2c-0.6,0.2-1.6,0.8-2.4,1.3C56.5,87.7,55.8,88.3,55.7,89.2z"/>
	
	<path class="st0" d="M225,73.1c-0.8,0.5-1.1,1.5-0.5,2.5c0.5,0.8,1.5,0.9,1.5,0.9s-0.5,0.9-0.1,1.7c0.5,1,1.5,1.3,2.4,0.9
	c0.8-0.4,1.2-1.3,1.5-2c0.3-1,0.5-2.2,0.5-2.9c-0.6-0.4-1.8-0.9-2.7-1.2C226.8,72.8,225.8,72.6,225,73.1z"/>
	<path class="st0" d="M236.3,99.7c-0.6,0-1.1,0.5-1.1,1.2c0,0.6,0.5,1,0.5,1s-0.6,0.3-0.6,0.9c-0.1,0.7,0.4,1.2,1,1.3
	c0.6,0.1,1.1-0.3,1.5-0.6c0.5-0.4,1-1,1.2-1.4c-0.2-0.4-0.7-1.1-1.1-1.5C237.4,100.1,236.9,99.7,236.3,99.7z"/>
	<path class="st0" d="M50.3,221.6c0-0.5-0.3-1.1-1-1.2c-0.5-0.1-1,0.4-1,0.4s-0.3-0.6-0.8-0.7c-0.7-0.1-1.2,0.3-1.3,0.8
	c-0.1,0.5,0.2,1.1,0.5,1.4c0.3,0.5,0.9,1.1,1.2,1.3c0.4-0.2,1.1-0.5,1.6-0.9C49.8,222.6,50.2,222.1,50.3,221.6z"/>

	<path class="st0" d="M258.6,92.2c0.4,0.4,1,0.6,1.6,0.1c0.4-0.3,0.4-1,0.4-1s0.6,0.2,1.1-0.1c0.6-0.4,0.7-1.1,0.4-1.5
	c-0.3-0.5-0.9-0.7-1.4-0.8c-0.6-0.1-1.4-0.1-1.9-0.1c-0.2,0.4-0.4,1.2-0.5,1.8C258.3,91.1,258.2,91.7,258.6,92.2z"/>
	<path class="st0" d="M15.2,162.6c0.1-0.7-0.4-1.4-1.3-1.5c-0.7-0.1-1.3,0.5-1.3,0.5s-0.3-0.7-1-0.9c-0.9-0.2-1.5,0.3-1.7,1
	c-0.2,0.7,0.2,1.4,0.5,1.9c0.4,0.7,1.1,1.4,1.6,1.7c0.5-0.2,1.4-0.6,2.1-1.1C14.5,163.9,15.1,163.3,15.2,162.6z"/>
	<path class="st0" d="M149.2,267.6c0.8,0.7,2,0.7,2.9-0.3c0.7-0.8,0.4-1.9,0.4-1.9s1.2,0.2,1.9-0.5c0.9-0.9,0.9-2.1,0.2-2.9
	c-0.7-0.8-1.9-0.9-2.7-0.9c-1.2,0-2.6,0.2-3.4,0.4c-0.2,0.8-0.4,2.2-0.3,3.4C148.3,265.7,148.4,266.9,149.2,267.6z"/>
	<polygon class="st1" points="214.8,35 216.5,35.1 217.6,33.9 217.9,35.5 219.4,36.1 218,37 217.9,38.6 216.6,37.5 215,37.9 
	215.7,36.4 	"/>
	<polygon class="st1" points="172.3,261.2 174.7,261.3 176.2,259.4 176.8,261.7 179.1,262.5 177,263.8 177,266.2 175.1,264.7 
	172.8,265.4 173.7,263.2 	"/>

	<polygon class="st1" points="103.3,247.8 105.2,249.3 107.4,248.6 106.6,250.8 107.9,252.8 105.5,252.6 104.1,254.5 103.5,252.2 
	101.3,251.4 103.3,250.2 	"/>
	<polygon class="st1" points="261.4,122.4 264.8,122.8 267,120.3 267.6,123.6 270.7,124.9 267.8,126.5 267.5,129.9 265,127.6 
	261.7,128.3 263.1,125.3 	"/>
	<polygon class="st1" points="189.5,32.6 190.2,33.8 191.6,33.8 190.7,34.8 191.2,36.1 189.9,35.6 188.8,36.4 188.8,35.1 
	187.8,34.3 189.1,33.9 	"/>
	<polygon class="st1" points="89.2,47.5 89.2,49.5 90.8,50.6 89,51.2 88.4,53.1 87.2,51.5 85.2,51.6 86.4,50 85.7,48.1 87.6,48.7 	
	"/>
	<polygon class="st1" points="121.4,37.3 120.1,39.1 120.9,41.3 118.7,40.6 116.9,42 116.9,39.7 115,38.4 117.2,37.7 117.8,35.5 
	119.1,37.3 	"/>

	<polygon class="st1" points="202.9,61.2 204.5,61.7 205.7,60.7 205.7,62.3 207.1,63.2 205.6,63.7 205.1,65.3 204.2,64 202.6,64 
	203.5,62.7 	"/>
	<path class="st1" d="M48.3,58.1c1.4,0.6,2,2.3,1.4,3.7c-0.6,1.4-2.3,2-3.7,1.4c-1.4-0.6-2-2.3-1.4-3.7
	C45.3,58.1,46.9,57.5,48.3,58.1z"/>
	<path class="st1" d="M123,236.5c-1.6-0.3-2.7-1.9-2.4-3.5c0.3-1.6,1.9-2.7,3.5-2.4s2.7,1.9,2.4,3.5
	C126.2,235.7,124.7,236.8,123,236.5z"/>
	<path class="st1" d="M70.1,206c1.3-0.5,2.7,0.1,3.3,1.3c0.5,1.3-0.1,2.7-1.3,3.3c-1.3,0.5-2.7-0.1-3.3-1.3
	C68.3,208,68.9,206.6,70.1,206z"/>
	<path class="st1" d="M69.4,39.8c-0.4,1.9-2.2,3.2-4.2,2.8c-1.9-0.4-3.2-2.2-2.8-4.2c0.4-1.9,2.2-3.2,4.2-2.8
	C68.5,36,69.7,37.9,69.4,39.8z"/>
	<path class="st1" d="M238.6,135.6c0.3-0.6,1-0.9,1.6-0.6c0.6,0.3,0.9,1,0.6,1.6c-0.3,0.6-1,0.9-1.6,0.6
	C238.7,136.9,238.4,136.2,238.6,135.6z"/>
	<path class="st1" d="M166.3,45.5c-0.1,0.5-0.6,0.9-1.2,0.8c-0.5-0.1-0.9-0.6-0.8-1.2s0.6-0.9,1.2-0.8
	C166,44.4,166.4,44.9,166.3,45.5z"/>
	<path class="st1" d="M237.2,222.8c-0.6-0.3-1-1-0.7-1.6c0.3-0.6,1-1,1.6-0.7c0.6,0.3,1,1,0.7,1.6
	C238.5,222.8,237.8,223.1,237.2,222.8z"/>
	<path class="st1" d="M51,184c0.1-0.6,0.7-1,1.4-0.8c0.6,0.1,1,0.7,0.8,1.4s-0.7,1-1.4,0.8C51.2,185.2,50.9,184.6,51,184z"/>
	<circle class="st1" cx="154.3" cy="236.7" r="1.4"/>
	<path class="st1" d="M209.3,229.5c0.3-0.5,1-0.7,1.5-0.5c0.5,0.3,0.7,1,0.5,1.5c-0.3,0.5-1,0.7-1.5,0.5
	C209.2,230.7,209,230,209.3,229.5z"/>
</g>
</svg>
